<?xml version="1.0" encoding="UTF-8"?>
<svg version="1.1" xmlns="http://www.w3.org/2000/svg" width="500" height="500">
<path d="M0 0 C165 0 330 0 500 0 C500 165 500 330 500 500 C335 500 170 500 0 500 C0 335 0 170 0 0 Z " fill="#D2D2D2" transform="translate(0,0)"/>
<path d="M0 0 C0.66 0 1.32 0 2 0 C0.62845314 3.18419421 -0.86169983 4.97112596 -3.5625 7.125 C-6.21025666 9.20903634 -6.21025666 9.20903634 -8 12 C6.18763484 12.23258418 15.7853113 10.16512713 28 3 C31.47325181 1.8422494 34.36067448 1.93133348 38 2 C37.84518205 4.70931419 37.51827919 6.46584039 35.59765625 8.4453125 C34.10228292 9.67679642 32.5537076 10.8429837 31 12 C32.65 12.66 34.3 13.32 36 14 C36 14.66 36 15.32 36 16 C34.515 16.495 34.515 16.495 33 17 C33 16.34 33 15.68 33 15 C26.00519529 15.42456029 21.01429911 17.0089894 14.8125 20.1875 C13.14715398 21.01568178 11.48047413 21.84118661 9.8125 22.6640625 C8.99910156 23.06657227 8.18570313 23.46908203 7.34765625 23.88378906 C4.06089618 25.44650402 0.7028828 26.73995843 -2.6875 28.0625 C-9.11813649 30.75071689 -14.80158702 34.60317405 -18 41 C-17.13375 40.505 -17.13375 40.505 -16.25 40 C-14 39 -14 39 -10 39 C-11.5 42 -11.5 42 -13 45 C-10.69 44.34 -8.38 43.68 -6 43 C-6 42.34 -6 41.68 -6 41 C-4.80375 40.9175 -3.6075 40.835 -2.375 40.75 C1.92587463 40.24088587 4.46216876 38.49256292 8 36 C9.32 36 10.64 36 12 36 C12 36.66 12 37.32 12 38 C10.35546875 39.25390625 10.35546875 39.25390625 8.1875 40.5625 C7.47980469 40.99691406 6.77210938 41.43132812 6.04296875 41.87890625 C4 43 4 43 1 44 C4.21238697 43.5132747 6.62711036 42.71888156 9.625 41.375 C13 40 13 40 16 41 C9.9394075 44.36561591 4.96050253 46.61330541 -2 47 C-1.67 45.68 -1.34 44.36 -1 43 C-1.9590625 43.433125 -1.9590625 43.433125 -2.9375 43.875 C-6.88410292 45.3247725 -10.8874607 46.15778062 -15 47 C-15 45.35 -15 43.7 -15 42 C-15.54269531 42.37253906 -16.08539063 42.74507812 -16.64453125 43.12890625 C-17.35996094 43.60199219 -18.07539063 44.07507813 -18.8125 44.5625 C-19.52019531 45.03816406 -20.22789062 45.51382813 -20.95703125 46.00390625 C-23 47 -23 47 -26 46 C-20.555 40.06 -20.555 40.06 -15 34 C-17.64 34.33 -20.28 34.66 -23 35 C-20.21911546 32.72588258 -17.84781838 31.51059854 -14.4375 30.4375 C-8.67262962 28.25111953 -4.82708676 24.58748206 -0.4453125 20.33984375 C1.61929211 18.36428758 3.67391292 16.64989898 6 15 C-4.1569253 13.51661846 -4.1569253 13.51661846 -13.78710938 16.01660156 C-16.97881753 18.71681093 -19.40986303 22.00501358 -21.82373047 25.39697266 C-23.57777234 27.7873917 -25.59757592 29.90292821 -27.625 32.0625 C-31.48801127 36.35855346 -35.13261194 40.80670598 -38.76171875 45.30078125 C-40.87139393 47.8449096 -43.0626828 50.26742636 -45.3125 52.6875 C-49.26159903 57.03429982 -52.88261653 61.58025567 -56.4375 66.25 C-56.95803955 66.92377686 -57.4785791 67.59755371 -58.01489258 68.29174805 C-60.88041053 72.11039197 -62.60718932 75.38062791 -64 80 C-64.99 80.495 -64.99 80.495 -66 81 C-65.83584628 73.85448502 -62.3646594 69.73797777 -58.0625 64.25 C-57.38171387 63.36256104 -56.70092773 62.47512207 -55.99951172 61.56079102 C-51.64742625 55.94401893 -47.13586676 50.59314491 -42.25390625 45.4296875 C-39.90012188 42.89233243 -37.72942326 40.2606443 -35.5625 37.5625 C-31.40737649 32.40925964 -26.99627519 27.56166838 -22.48046875 22.7265625 C-20.2055679 20.22596282 -18.07846983 17.66470492 -16 15 C-28.05276854 14.88885767 -39.97960136 15.05985709 -52 16 C-51.67 15.34 -51.34 14.68 -51 14 C-44.74457063 12.15591388 -38.24442233 11.94786721 -31.7734375 12.0390625 C-17.96916697 12.72192549 -17.96916697 12.72192549 -6.00610352 6.99975586 C-3.85785969 4.77141865 -1.93884628 2.41163872 0 0 Z " fill="#282828" transform="translate(260,128)"/>
<path d="M0 0 C17.65535248 0 17.65535248 0 23.625 5.49609375 C27.59132645 10.01455087 28.37296474 13.92097757 28.26953125 19.72265625 C27.67522626 24.74410276 24.55557774 27.86084772 20.75 30.875 C16 33 16 33 0 33 C0 22.11 0 11.22 0 0 Z " fill="#0E0E0E" transform="translate(259,231)"/>
<path d="M0 0 C0.66 0 1.32 0 2 0 C2.36351563 1.13695312 2.72703125 2.27390625 3.1015625 3.4453125 C7.296892 16.40641282 11.58807874 28.97046658 19.23828125 40.37109375 C20.38575104 42.08339346 21.49032458 43.82548315 22.54296875 45.59765625 C30.80689866 59.45249182 42.5385123 72.2771922 55.5 81.875 C56.18634521 82.38603271 56.87269043 82.89706543 57.57983398 83.42358398 C66.48755296 89.95183681 75.75107409 95.82008848 86 100 C86.74628662 100.3081665 87.49257324 100.61633301 88.26147461 100.93383789 C109.34317606 109.55826566 128.57536372 112.18734264 151.375 112.25 C152.63562256 112.25394775 153.89624512 112.25789551 155.19506836 112.26196289 C163.46589991 112.21032675 171.10583981 111.5358007 179.12890625 109.55859375 C181.91080914 109.01735278 183.37717068 109.03166937 186 110 C181.18121597 113.69164356 175.97126982 114.00998141 170.125 114.6875 C169.06434326 114.8127002 168.00368652 114.93790039 166.91088867 115.06689453 C122.94590419 119.85171183 83.84476698 107.94314728 49 81 C45.11007737 77.86278603 41.4558884 74.6166274 38 71 C37.37609375 70.35933594 36.7521875 69.71867187 36.109375 69.05859375 C22.24476972 54.32121655 11.02322341 36.80282384 4.32421875 17.71875 C2.90576283 13.73535756 1.28742777 9.87611248 -0.43359375 6.015625 C-1.10123043 3.6397593 -0.79443902 2.30543088 0 0 Z " fill="#2A2A2A" transform="translate(103,286)"/>
<path d="M0 0 C14.60869565 0 14.60869565 0 20.4375 3.4375 C22.98070921 7.6083631 22.62496382 12.24010116 22 17 C21.34 17.99 20.68 18.98 20 20 C19.34 20 18.68 20 18 20 C18.33773438 20.60328125 18.67546875 21.2065625 19.0234375 21.828125 C19.46945312 22.62734375 19.91546875 23.4265625 20.375 24.25 C20.81585938 25.03890625 21.25671875 25.8278125 21.7109375 26.640625 C22.85747823 28.73914197 23.94649552 30.8536077 25 33 C19.89001594 33.79292856 19.89001594 33.79292856 17 33 C15.08835705 30.82020804 13.78215924 28.62294045 12.421875 26.06640625 C11.01603758 23.5352811 11.01603758 23.5352811 7 23 C7 26.3 7 29.6 7 33 C4.69 33 2.38 33 0 33 C0 22.11 0 11.22 0 0 Z " fill="#111111" transform="translate(395,231)"/>
<path d="M0 0 C2.31 0 4.62 0 7 0 C7.33 3.63 7.66 7.26 8 11 C8.6290625 10.2059375 9.258125 9.411875 9.90625 8.59375 C16.67998237 0.39431836 16.67998237 0.39431836 20.4453125 -0.73046875 C22.625 -0.6875 22.625 -0.6875 26 0 C24.41332422 3.90285767 21.86649519 6.33520982 18.875 9.25 C17.96492188 10.14203125 17.05484375 11.0340625 16.1171875 11.953125 C15.06917969 12.96632812 15.06917969 12.96632812 14 14 C15.52606082 18.6658871 18.09914189 21.97827211 21.125 25.75 C26 31.88739669 26 31.88739669 26 33 C21.15854518 34.05631742 21.15854518 34.05631742 18 33 C15.27382613 30.08372842 13.08948081 27.03587687 10.8828125 23.72265625 C9.28149292 20.9402087 9.28149292 20.9402087 7 20 C7 24.29 7 28.58 7 33 C4.69 33 2.38 33 0 33 C0 22.11 0 11.22 0 0 Z " fill="#0E0E0E" transform="translate(193,231)"/>
<path d="M0 0 C31.83415685 -0.3471014 65.64001295 18.20252835 88 40 C89.03620825 40.9742244 90.07268294 41.94816545 91.109375 42.921875 C109.60887714 60.56793271 126.13695657 85.49774074 131 111 C130.58984375 113.3515625 130.58984375 113.3515625 130 115 C127.32764903 112.32764903 126.81473981 109.35162047 125.8125 105.8125 C114.99519087 69.65143116 90.26984693 42.04477367 59 22 C58.28585937 21.49726562 57.57171875 20.99453125 56.8359375 20.4765625 C50.79790269 16.30047675 43.78467381 14.09101245 36.90869141 11.67578125 C35.30025904 11.10630814 33.70158842 10.50937214 32.10546875 9.90625 C21.73276759 6.1398812 10.78494137 4.22059037 0 2 C0 1.34 0 0.68 0 0 Z " fill="#252525" transform="translate(267,99)"/>
<path d="M0 0 C2.6050989 2.6050989 3.65792645 5.5917034 5.0390625 8.94140625 C5.32478119 9.62428207 5.61049988 10.3071579 5.90487671 11.01072693 C6.50726021 12.45304477 7.10727023 13.89635585 7.70507812 15.34057617 C8.62369143 17.55933936 9.54947287 19.77500138 10.4765625 21.99023438 C11.06031664 23.39044964 11.64366405 24.79083455 12.2265625 26.19140625 C12.50464752 26.85805801 12.78273254 27.52470978 13.06924438 28.21156311 C15 32.88309079 15 32.88309079 15 34 C11.625 34.1875 11.625 34.1875 8 34 C6 31 6 31 6 28 C2.04 28 -1.92 28 -6 28 C-6.66 29.98 -7.32 31.96 -8 34 C-9.98 34 -11.96 34 -14 34 C-11.67153028 26.65992325 -8.85657341 19.59734766 -5.875 12.5 C-5.41996094 11.40429688 -4.96492188 10.30859375 -4.49609375 9.1796875 C-1.13069696 1.13069696 -1.13069696 1.13069696 0 0 Z " fill="#0C0C0C" transform="translate(340,230)"/>
<path d="M0 0 C3.5 1.5 3.5 1.5 6 3 C5.34 4.65 4.68 6.3 4 8 C3.484375 7.835 2.96875 7.67 2.4375 7.5 C-0.73363876 6.84951 -3.77218334 6.9379266 -7 7 C-6.84254114 9.41823306 -6.84254114 9.41823306 -6 12 C-4.01986462 13.60330798 -4.01986462 13.60330798 -1.5625 14.6875 C1.09680535 15.99794421 2.89048445 16.89048445 5 19 C5.50421994 22.03704568 5.45467228 24.95802594 5 28 C3.12379387 30.50160818 1.76108697 31.61945652 -1 33 C-2.78752492 33.14754174 -4.5816284 33.2211522 -6.375 33.25 C-7.33148438 33.27578125 -8.28796875 33.3015625 -9.2734375 33.328125 C-12.37892147 32.95439914 -13.70536066 32.06626291 -16 30 C-15.34 28.35 -14.68 26.7 -14 25 C-12.700625 25.5259375 -12.700625 25.5259375 -11.375 26.0625 C-7.75174758 27.068959 -5.6146678 26.86063519 -2 26 C-2 24.68 -2 23.36 -2 22 C-2.68707031 21.68546875 -3.37414062 21.3709375 -4.08203125 21.046875 C-4.98308594 20.61890625 -5.88414063 20.1909375 -6.8125 19.75 C-7.70582031 19.33234375 -8.59914063 18.9146875 -9.51953125 18.484375 C-12.17190925 16.89712517 -13.47783201 15.67639471 -15 13 C-15.0823026 7.81493644 -14.83096818 5.97284079 -11.4375 2 C-7.32150409 -0.39476126 -4.63973024 -0.88375814 0 0 Z " fill="#0D0D0D" transform="translate(96,231)"/>
<path d="M0 0 C0.66 0 1.32 0 2 0 C0.62845314 3.18419421 -0.86169983 4.97112596 -3.5625 7.125 C-6.21025666 9.20903634 -6.21025666 9.20903634 -8 12 C-6.68 12.33 -5.36 12.66 -4 13 C-5.55074219 13.06380859 -5.55074219 13.06380859 -7.1328125 13.12890625 C-11.86971104 14.19590461 -13.88243037 16.35608777 -16.875 19.9375 C-17.3903833 20.5257959 -17.9057666 21.1140918 -18.43676758 21.72021484 C-19.48056312 22.91270797 -20.51786447 24.11091918 -21.54833984 25.31494141 C-23.54417678 27.63166972 -25.61790512 29.87417965 -27.6875 32.125 C-31.52773245 36.40115073 -35.15145739 40.83004309 -38.76171875 45.30078125 C-40.87139393 47.8449096 -43.0626828 50.26742636 -45.3125 52.6875 C-49.26159903 57.03429982 -52.88261653 61.58025567 -56.4375 66.25 C-56.95803955 66.92377686 -57.4785791 67.59755371 -58.01489258 68.29174805 C-60.88041053 72.11039197 -62.60718932 75.38062791 -64 80 C-64.99 80.495 -64.99 80.495 -66 81 C-65.83584628 73.85448502 -62.3646594 69.73797777 -58.0625 64.25 C-57.38171387 63.36256104 -56.70092773 62.47512207 -55.99951172 61.56079102 C-51.64742625 55.94401893 -47.13586676 50.59314491 -42.25390625 45.4296875 C-39.90012188 42.89233243 -37.72942326 40.2606443 -35.5625 37.5625 C-31.40737649 32.40925964 -26.99627519 27.56166838 -22.48046875 22.7265625 C-20.2055679 20.22596282 -18.07846983 17.66470492 -16 15 C-28.05276854 14.88885767 -39.97960136 15.05985709 -52 16 C-51.67 15.34 -51.34 14.68 -51 14 C-44.74457063 12.15591388 -38.24442233 11.94786721 -31.7734375 12.0390625 C-17.96916697 12.72192549 -17.96916697 12.72192549 -6.00610352 6.99975586 C-3.85785969 4.77141865 -1.93884628 2.41163872 0 0 Z " fill="#171717" transform="translate(260,128)"/>
<path d="M0 0 C1.33401777 0.43540858 2.66716774 0.87347586 4 1.3125 C5.25103516 1.72435547 5.25103516 1.72435547 6.52734375 2.14453125 C8.56816542 2.85059752 10.57221936 3.6619871 12.5625 4.5 C27.83893676 10.27042343 45.29236089 10.20580212 61.375 10.25 C62.63562256 10.25394775 63.89624512 10.25789551 65.19506836 10.26196289 C73.46589991 10.21032675 81.10583981 9.5358007 89.12890625 7.55859375 C91.91080914 7.01735278 93.37717068 7.03166937 96 8 C91.18121597 11.69164356 85.97126982 12.00998141 80.125 12.6875 C79.06434326 12.8127002 78.00368652 12.93790039 76.91088867 13.06689453 C49.95567254 16.00049694 24.13847651 13.42448728 -1 3 C-0.67 2.01 -0.34 1.02 0 0 Z " fill="#282828" transform="translate(193,388)"/>
<path d="M0 0 C0.33 0 0.66 0 1 0 C1.33 1.65 1.66 3.3 2 5 C2.99 4.67 3.98 4.34 5 4 C8.03016439 4.96078383 9.73814546 5.73814546 12 8 C12.25 11 12.25 11 12 14 C11.34 14.66 10.68 15.32 10 16 C7.6568787 15.74438677 5.32156597 15.40729228 3 15 C2.01 15 1.02 15 0 15 C-1.67099977 14.68911632 -3.33871537 14.35919668 -5 14 C-5.33 14.66 -5.66 15.32 -6 16 C-8.875 16.125 -8.875 16.125 -12 16 C-14 14 -14 14 -14.3125 10.5 C-14.209375 9.345 -14.10625 8.19 -14 7 C-10.5647952 4.70986347 -9.014669 4.82157027 -5 5 C-4.67 4.01 -4.34 3.02 -4 2 C-3.01 2 -2.02 2 -1 2 C-0.67 1.34 -0.34 0.68 0 0 Z " fill="#BFBFBF" transform="translate(178,306)"/>
<path d="M0 0 C2.64 1.32 5.28 2.64 8 4 C8 4.66 8 5.32 8 6 C9.32 5.67 10.64 5.34 12 5 C11.67 8.96 11.34 12.92 11 17 C11.99 17 12.98 17 14 17 C14 15.02 14 13.04 14 11 C15.15518918 11.90484792 16.29885406 12.8244206 17.4375 13.75 C18.07558594 14.26046875 18.71367187 14.7709375 19.37109375 15.296875 C21.18810554 17.19667629 21.60423197 18.43586908 22 21 C18.61608307 22.06351675 17.4195366 22.21442982 14.1875 20.5625 C13.465625 20.046875 12.74375 19.53125 12 19 C10.68 20.32 9.36 21.64 8 23 C7.34 22.67 6.68 22.34 6 22 C5.01 22 4.02 22 3 22 C2.01 21.67 1.02 21.34 0 21 C-1.32 21 -2.64 21 -4 21 C-4.33 20.34 -4.66 19.68 -5 19 C-2.66785852 17.79371992 -0.50357861 16.8345262 2 16 C2.66 16.33 3.32 16.66 4 17 C3.45859375 15.89591797 3.45859375 15.89591797 2.90625 14.76953125 C2.4421875 13.79371094 1.978125 12.81789063 1.5 11.8125 C1.0359375 10.84957031 0.571875 9.88664062 0.09375 8.89453125 C-1.0015641 5.99586073 -1.30466556 4.06297696 -1 1 C-0.67 0.67 -0.34 0.34 0 0 Z M13 20 C13.33 20.66 13.66 21.32 14 22 C13.34 21.67 12.68 21.34 12 21 C12.33 20.67 12.66 20.34 13 20 Z " fill="#D9D9D9" transform="translate(282,305)"/>
<path d="M0 0 C9.15151515 0 9.15151515 0 11.5 1.9375 C14.42564939 5.5214205 14.82821175 7.33520382 14.53515625 11.84375 C13.68336565 15.27578219 11.74511226 16.9084859 9 19 C7 20 7 20 0 20 C0 13.4 0 6.8 0 0 Z " fill="#D2D2D2" transform="translate(266,238)"/>
<path d="M0 0 C1.98 0 3.96 0 6 0 C7 1 7 1 7.11352539 4.05102539 C7.11336634 5.39991271 7.10767612 6.74880614 7.09765625 8.09765625 C7.0962413 8.80651474 7.09482635 9.51537323 7.09336853 10.24571228 C7.08775443 12.51801712 7.07519963 14.79022475 7.0625 17.0625 C7.05748681 18.59960796 7.05292359 20.13671745 7.04882812 21.67382812 C7.03778042 25.44925642 7.02050641 29.22461171 7 33 C4.69 33 2.38 33 0 33 C0 22.11 0 11.22 0 0 Z " fill="#121212" transform="translate(143,231)"/>
<path d="M0 0 C5.75 1.875 5.75 1.875 8 3 C8.33 2.34 8.66 1.68 9 1 C10.65 1.66 12.3 2.32 14 3 C13.01 3.495 13.01 3.495 12 4 C12.3403125 5.1446875 12.3403125 5.1446875 12.6875 6.3125 C12.790625 7.199375 12.89375 8.08625 13 9 C11.5625 10.8125 11.5625 10.8125 10 12 C9.71125 11.360625 9.4225 10.72125 9.125 10.0625 C8.17176549 7.84793921 8.17176549 7.84793921 6 7 C6.66 8.65 7.32 10.3 8 12 C5.7962116 14.53435666 4.33421339 15.53691481 1 16 C-2.625 16.1875 -2.625 16.1875 -6 16 C-6.66 15.34 -7.32 14.68 -8 14 C-7.9375 12 -7.9375 12 -7 10 C-5.34795544 9.29788106 -3.68076231 8.63028587 -2 8 C-1.67 7.01 -1.34 6.02 -1 5 C-0.34 4.34 0.32 3.68 1 3 C0.34 2.34 -0.32 1.68 -1 1 C-0.67 0.67 -0.34 0.34 0 0 Z " fill="#DDDDDD" transform="translate(321,304)"/>
<path d="M0 0 C6.49291094 -0.36752326 6.49291094 -0.36752326 8.703125 1.234375 C10.75760986 4.03144475 10.46730143 6.47287474 10.36328125 9.83984375 C10 12 10 12 8.125 14.5 C4.75536116 16.87856859 2.73102871 17.18395128 -1.375 17.25 C-2.33148438 17.27578125 -3.28796875 17.3015625 -4.2734375 17.328125 C-7.37892147 16.95439914 -8.70536066 16.06626291 -11 14 C-10.34 12.35 -9.68 10.7 -9 9 C-8.13375 9.350625 -7.2675 9.70125 -6.375 10.0625 C-2.75174758 11.068959 -0.6146678 10.86063519 3 10 C3 8.68 3 7.36 3 6 C2.01 5.34 1.02 4.68 0 4 C0 2.68 0 1.36 0 0 Z " fill="#060606" transform="translate(91,247)"/>
<path d="M0 0 C1.175625 0.7734375 1.175625 0.7734375 2.375 1.5625 C3.24125 2.036875 4.1075 2.51125 5 3 C5.66 2.67 6.32 2.34 7 2 C8.32 3.32 9.64 4.64 11 6 C11.66 5.01 12.32 4.02 13 3 C13.66 3 14.32 3 15 3 C14.62875 3.886875 14.2575 4.77375 13.875 5.6875 C12.89215772 9.40826005 13.23937836 10.67438135 15 14 C13 14 13 14 11.375 12.5 C10.92125 12.005 10.4675 11.51 10 11 C9.67 11.99 9.34 12.98 9 14 C8.34 14 7.68 14 7 14 C5.375 11.5 5.375 11.5 4 9 C2.02 9.99 2.02 9.99 0 11 C0 11.99 0 12.98 0 14 C-1.11375 13.814375 -2.2275 13.62875 -3.375 13.4375 C-6.82568861 12.68319343 -6.82568861 12.68319343 -9 14 C-8.39301257 9.87248551 -6.96189209 6.6678852 -5 3 C-4.01 3 -3.02 3 -2 3 C-1.67 2.34 -1.34 1.68 -1 1 C-0.67 0.67 -0.34 0.34 0 0 Z " fill="#CDCDCD" transform="translate(254,289)"/>
<path d="M0 0 C3.5553962 0.56057003 4.86112742 1.63933588 7.0625 4.4375 C16.27652656 15.42345474 27.54353712 23.36535951 39.6875 30.75 C40.3052832 31.12713135 40.92306641 31.5042627 41.55957031 31.89282227 C45.59569918 34.30403715 49.66599961 36.18268688 54 38 C56.4375 39.6875 56.4375 39.6875 58 41 C56 42 56 42 53.6015625 41.25 C33.98868641 33.01362159 12.78365506 19.44024419 0 2 C0 1.34 0 0.68 0 0 Z " fill="#232323" transform="translate(135,348)"/>
<path d="M0 0 C2.33218272 0.84806644 3.44954313 1.8950996 5.0625 3.75 C5.7225 3.09 6.3825 2.43 7.0625 1.75 C6.48665568 4.13564077 5.84022405 6.41682784 5.0625 8.75 C6.0525 9.41 7.0425 10.07 8.0625 10.75 C4.98927456 11.66058531 2.26152639 11.83886184 -0.9375 11.75 C-0.9375 12.41 -0.9375 13.07 -0.9375 13.75 C-3.58488916 15.2106285 -4.83198334 15.75 -7.9375 15.75 C-6.9375 13.75 -5.9375 11.75 -4.9375 9.75 C-7.5775 10.41 -10.2175 11.07 -12.9375 11.75 C-11.54359461 8.59280428 -9.90115028 6.4687347 -7.4375 4.0625 C-6.8290625 3.46050781 -6.220625 2.85851562 -5.59375 2.23828125 C-3.61661533 0.46165788 -2.6868155 -0.34668587 0 0 Z " fill="#C6C6C6" transform="translate(254.9375,157.25)"/>
<path d="M0 0 C7.7810219 -0.29927007 7.7810219 -0.29927007 11 2 C12.75 4.125 12.75 4.125 14 6 C13.67 6.66 13.34 7.32 13 8 C13.66 8.33 14.32 8.66 15 9 C15 10.32 15 11.64 15 13 C14.34 13 13.68 13 13 13 C13.33 15.97 13.66 18.94 14 22 C13.01 22.66 12.02 23.32 11 24 C11.0928125 23.26394531 11.185625 22.52789062 11.28125 21.76953125 C11.50946825 18.68450957 11.56713758 16.04621624 11 13 C8.68508903 10.54729671 6.04232287 9.37601244 3 8 C1.65064926 7.02172071 0.30674304 6.03450491 -1 5 C-0.67 3.35 -0.34 1.7 0 0 Z M10 25 C10 25.66 10 26.32 10 27 C6.35206816 28.27253436 2.8063457 29.32829194 -1 30 C-1.33 29.01 -1.66 28.02 -2 27 C-0.37548581 26.66430703 1.24962917 26.3315204 2.875 26 C3.77992187 25.814375 4.68484375 25.62875 5.6171875 25.4375 C8 25 8 25 10 25 Z " fill="#ACACAC" transform="translate(89,237)"/>
<path d="M0 0 C2 2 2 2 2 5 C2.54269531 4.77183594 3.08539063 4.54367188 3.64453125 4.30859375 C4.35996094 4.02113281 5.07539063 3.73367187 5.8125 3.4375 C6.52019531 3.14746094 7.22789062 2.85742188 7.95703125 2.55859375 C10 2 10 2 13 3 C10.79124879 5.19602066 8.59005725 7.26080867 6 9 C3.0625 8.875 3.0625 8.875 1 8 C0.34 9.32 -0.32 10.64 -1 12 C-1.66 12 -2.32 12 -3 12 C-3 11.34 -3 10.68 -3 10 C-3.66 10 -4.32 10 -5 10 C-5.268125 10.763125 -5.53625 11.52625 -5.8125 12.3125 C-6.96335371 14.91706367 -7.89567548 16.15871605 -10 18 C-10.66 18.66 -11.32 19.32 -12 20 C-12.66 20 -13.32 20 -14 20 C-15.68756133 20.96432076 -17.35666496 21.96210419 -19 23 C-17.4186938 19.26077871 -15.06769602 16.70350263 -12.3125 13.75 C-8.13151223 9.2291932 -4.02918327 4.65624159 0 0 Z " fill="#C8C8C8" transform="translate(233,159)"/>
<path d="M0 0 C1.88539558 0.53802186 3.77942883 1.04894741 5.6875 1.5 C6.0175 1.17 6.3475 0.84 6.6875 0.5 C8.35367115 0.45936168 10.02138095 0.457279 11.6875 0.5 C10.83035714 9.07142857 10.83035714 9.07142857 8.6875 12.5 C7.6975 11.84 6.7075 11.18 5.6875 10.5 C5.5 7.375 5.5 7.375 5.6875 4.5 C5.0275 4.17 4.3675 3.84 3.6875 3.5 C3.0275 4.82 2.3675 6.14 1.6875 7.5 C0.3675 7.5 -0.9525 7.5 -2.3125 7.5 C-1.9825 6.84 -1.6525 6.18 -1.3125 5.5 C-0.6525 5.83 0.0075 6.16 0.6875 6.5 C0.6875 5.84 0.6875 5.18 0.6875 4.5 C-1.15975052 3.80840599 -1.15975052 3.80840599 -3.3125 3.5 C-6.35384491 5.16924071 -6.35384491 5.16924071 -7.3125 7.5 C-8.9625 7.5 -10.6125 7.5 -12.3125 7.5 C-12.3125 4.86 -12.3125 2.22 -12.3125 -0.5 C-7.67805281 -1.5561259 -4.54909215 -1.31430807 0 0 Z " fill="#787878" transform="translate(221.3125,338.5)"/>
<path d="M0 0 C1.01339951 -0.00524185 1.01339951 -0.00524185 2.04727173 -0.0105896 C10.54746398 -0.034998 10.54746398 -0.034998 13.9375 0.3125 C14.5975 0.9725 15.2575 1.6325 15.9375 2.3125 C14.89916016 2.32651855 14.89916016 2.32651855 13.83984375 2.34082031 C-0.21522981 2.57692333 -13.80956239 3.36831194 -27.6328125 6.02832031 C-28.56867188 6.20717773 -29.50453125 6.38603516 -30.46875 6.5703125 C-31.69561523 6.81998779 -31.69561523 6.81998779 -32.94726562 7.07470703 C-35.0625 7.3125 -35.0625 7.3125 -38.0625 6.3125 C-35.81050292 3.20839591 -33.22806585 2.64662255 -29.56420898 1.98120117 C-28.80052002 1.86365479 -28.03683105 1.7461084 -27.25 1.625 C-26.44699463 1.49907471 -25.64398926 1.37314941 -24.81665039 1.2434082 C-16.56681592 0.11860385 -8.31033553 0.01424424 0 0 Z " fill="#222222" transform="translate(250.0625,97.6875)"/>
<path d="M0 0 C0 0.66 0 1.32 0 2 C-1.64453125 3.25390625 -1.64453125 3.25390625 -3.8125 4.5625 C-4.87404297 5.21412109 -4.87404297 5.21412109 -5.95703125 5.87890625 C-8 7 -8 7 -11 8 C-7.78761303 7.5132747 -5.37288964 6.71888156 -2.375 5.375 C1 4 1 4 4 5 C-2.0605925 8.36561591 -7.03949747 10.61330541 -14 11 C-13.67 9.68 -13.34 8.36 -13 7 C-13.639375 7.28875 -14.27875 7.5775 -14.9375 7.875 C-18.88410292 9.3247725 -22.8874607 10.15778062 -27 11 C-27 9.35 -27 7.7 -27 6 C-27.99 6.33 -28.98 6.66 -30 7 C-30 6.01 -30 5.02 -30 4 C-27.36 3.67 -24.72 3.34 -22 3 C-23 5 -24 7 -25 9 C-22.69 8.34 -20.38 7.68 -18 7 C-18 6.34 -18 5.68 -18 5 C-16.80375 4.9175 -15.6075 4.835 -14.375 4.75 C-8.71362972 4.07983779 -5.68449722 0 0 0 Z " fill="#303030" transform="translate(272,164)"/>
<path d="M0 0 C15.70501459 2.90833604 30.36150477 19.93659446 41 31 C40.34 31.66 39.68 32.32 39 33 C38.40316406 32.35675781 37.80632812 31.71351563 37.19140625 31.05078125 C26.74346563 20.16815662 14.8232376 10.90814094 1.80859375 3.26953125 C1.21175781 2.85058594 0.61492187 2.43164062 0 2 C0 1.34 0 0.68 0 0 Z " fill="#212121" transform="translate(323,117)"/>
<path d="M0 0 C0.763125 0.165 1.52625 0.33 2.3125 0.5 C5.03596236 1.09145396 5.03596236 1.09145396 8 1 C8.66 1.33 9.32 1.66 10 2 C8.52307692 6.67692308 8.52307692 6.67692308 5.875 8.3125 C5.25625 8.539375 4.6375 8.76625 4 9 C3.67 8.01 3.34 7.02 3 6 C2.01 6.99 1.02 7.98 0 9 C-0.99 8.67 -1.98 8.34 -3 8 C-3.33 7.34 -3.66 6.68 -4 6 C-6.64 6.66 -9.28 7.32 -12 8 C-13.125 3.25 -13.125 3.25 -12 1 C-8.37 1.66 -4.74 2.32 -1 3 C-0.67 2.01 -0.34 1.02 0 0 Z " fill="#C2C2C2" transform="translate(173,319)"/>
<path d="M0 0 C-0.37758289 2.55423718 -0.81514419 3.80437589 -2.609375 5.703125 C-9.29529468 10.53455601 -14.92004885 10.67436996 -23 10 C-17.65276972 4.04512992 -7.97804831 0 0 0 Z " fill="#CECECE" transform="translate(296,131)"/>
<path d="M0 0 C2 1 2 1 3 3 C2.34 3 1.68 3 1 3 C1 3.66 1 4.32 1 5 C0.36449219 5.23589844 -0.27101562 5.47179687 -0.92578125 5.71484375 C-3.17990833 6.81831778 -3.17990833 6.81831778 -3.79296875 9.12890625 C-3.92316406 9.93199219 -4.05335938 10.73507812 -4.1875 11.5625 C-4.93629344 15.93629344 -4.93629344 15.93629344 -6 17 C-7.66617115 17.04063832 -9.33388095 17.042721 -11 17 C-11.33 16.34 -11.66 15.68 -12 15 C-10.35 15 -8.7 15 -7 15 C-7.66 14.525625 -8.32 14.05125 -9 13.5625 C-11.9971197 9.72244039 -11.28172333 6.78929657 -11 2 C-7.37 2 -3.74 2 0 2 C0 1.34 0 0.68 0 0 Z " fill="#C9C9C9" transform="translate(228,305)"/>
<path d="M0 0 C4.29 2.31 8.58 4.62 13 7 C12.67 8.65 12.34 10.3 12 12 C7.05632546 13.20577428 3.79137588 12.6290678 -1 11 C-1 10.34 -1 9.68 -1 9 C-0.01 9 0.98 9 2 9 C2 8.01 2 7.02 2 6 C1.34 6 0.68 6 0 6 C-1.125 2.25 -1.125 2.25 0 0 Z " fill="#B1B1B1" transform="translate(82,246)"/>
<path d="M0 0 C-3.58942803 3.03292756 -7.53762855 4.72702888 -11.8125 6.5625 C-12.49892578 6.86607422 -13.18535156 7.16964844 -13.89257812 7.48242188 C-18.20113916 9.35340533 -22.4567482 10.80628286 -27 12 C-25.37525299 10.2704306 -23.71883813 8.6339073 -22 7 C-21.37996094 6.37609375 -20.75992187 5.7521875 -20.12109375 5.109375 C-13.74437504 -0.66842538 -8.37339697 -0.8153385 0 0 Z " fill="#CDCDCD" transform="translate(283,142)"/>
<path d="M0 0 C-9.50135471 6.32520305 -21.66652652 5.23917085 -32.64038086 4.77856445 C-34.82703757 4.68689052 -37.01376935 4.61247386 -39.20117188 4.54101562 C-45.85786662 4.30430749 -52.39846452 3.89022297 -59 3 C-59 2.67 -59 2.34 -59 2 C-57.35354492 2.02356567 -57.35354492 2.02356567 -55.67382812 2.04760742 C-51.52139912 2.10275024 -47.36900091 2.13664998 -43.21630859 2.16479492 C-41.43402631 2.17969266 -39.6517794 2.20001783 -37.86962891 2.22631836 C-27.29202059 2.37827837 -17.50268782 1.92867093 -7.16992188 -0.44799805 C-4.25501495 -0.95559236 -2.72291013 -1.02534053 0 0 Z " fill="#444444" transform="translate(289,396)"/>
<path d="M0 0 C2.4375 0.8125 2.4375 0.8125 4.4375 2.8125 C4.6875 5.8125 4.6875 5.8125 4.4375 8.8125 C3.7775 9.4725 3.1175 10.1325 2.4375 10.8125 C-4.13942308 10.23557692 -4.13942308 10.23557692 -5.5625 8.8125 C-6.01941383 3.55799098 -6.01941383 3.55799098 -4.375 0.875 C-2.5625 -0.1875 -2.5625 -0.1875 0 0 Z " fill="#222222" transform="translate(185.5625,311.1875)"/>
<path d="M0 0 C1.32 0 2.64 0 4 0 C4.08131463 1.43655854 4.13933559 2.8744483 4.1875 4.3125 C4.22230469 5.11300781 4.25710937 5.91351563 4.29296875 6.73828125 C4 9 4 9 2.65234375 10.80859375 C1 12 1 12 -1.625 11.75 C-4 11 -4 11 -5 10 C-5.07179964 8.48071962 -5.08392007 6.95832518 -5.0625 5.4375 C-5.05347656 4.61121094 -5.04445312 3.78492188 -5.03515625 2.93359375 C-5.02355469 2.29550781 -5.01195312 1.65742188 -5 1 C-4.34 1 -3.68 1 -3 1 C-3 1.99 -3 2.98 -3 4 C-2.5875 3.34 -2.175 2.68 -1.75 2 C-1.1725 1.34 -0.595 0.68 0 0 Z " fill="#767676" transform="translate(236,310)"/>
<path d="M0 0 C2.59372458 1.07326534 3.82425055 1.72838721 5.375 4.125 C6.93673657 6.3703583 6.93673657 6.3703583 10.1875 6.25 C11.115625 6.1675 12.04375 6.085 13 6 C12.34 7.65 11.68 9.3 11 11 C9.68 10.34 8.36 9.68 7 9 C6.01 9.66 5.02 10.32 4 11 C1.9375 10.5625 1.9375 10.5625 0 10 C-0.99 10.495 -0.99 10.495 -2 11 C-2 10.34 -2 9.68 -2 9 C-3.32 8.67 -4.64 8.34 -6 8 C-6 7.34 -6 6.68 -6 6 C-4.35 5.67 -2.7 5.34 -1 5 C-0.67 3.35 -0.34 1.7 0 0 Z " fill="#D9D9D9" transform="translate(281,340)"/>
<path d="M0 0 C0.66 0.33 1.32 0.66 2 1 C1.28457031 1.81339844 0.56914062 2.62679687 -0.16796875 3.46484375 C-6.01090835 10.16173621 -11.67570079 16.97815136 -17.125 24 C-17.68082764 24.70503662 -18.23665527 25.41007324 -18.80932617 26.13647461 C-21.78075887 30.00971062 -23.59933351 33.26372568 -25 38 C-25.99 38.495 -25.99 38.495 -27 39 C-26.82708197 31.8815413 -23.41028058 27.78608322 -19.125 22.3125 C-18.45331787 21.43561523 -17.78163574 20.55873047 -17.08959961 19.65527344 C-11.74435269 12.75695122 -6.10040679 6.23991713 0 0 Z " fill="#181818" transform="translate(221,170)"/>
<path d="M0 0 C1.13695312 0.09087891 1.13695312 0.09087891 2.296875 0.18359375 C15.84681935 1.17991319 29.42268834 1.55798766 43 2 C43 2.33 43 2.66 43 3 C37.29679671 4.20830578 31.67681601 4.19218077 25.875 4.1875 C24.85124268 4.18669434 23.82748535 4.18588867 22.77270508 4.18505859 C4.03322549 4.03322549 4.03322549 4.03322549 0 0 Z " fill="#161616" transform="translate(223,398)"/>
<path d="M0 0 C4.29 0 8.58 0 13 0 C13.33 1.65 13.66 3.3 14 5 C10.92677456 5.91058531 8.19902639 6.08886184 5 6 C4.67 6.99 4.34 7.98 4 9 C4 8.01 4 7.02 4 6 C2.68 5.67 1.36 5.34 0 5 C0 3.33333333 0 1.66666667 0 0 Z " fill="#979797" transform="translate(257,340)"/>
<path d="M0 0 C0.66 0.33 1.32 0.66 2 1 C1.690625 1.721875 1.38125 2.44375 1.0625 3.1875 C0.07446889 5.80287647 -0.46833847 8.26574068 -1 11 C-1.33 11.33 -1.66 11.66 -2 12 C-2.99 13.485 -2.99 13.485 -4 15 C-4 14.34 -4 13.68 -4 13 C-4.66 13 -5.32 13 -6 13 C-5.67 14.32 -5.34 15.64 -5 17 C-6.65 15.35 -8.3 13.7 -10 12 C-8.52278578 8.54798361 -6.56205999 6.35038064 -3.875 3.75 C-3.15054688 3.04359375 -2.42609375 2.3371875 -1.6796875 1.609375 C-1.12539062 1.07828125 -0.57109375 0.5471875 0 0 Z " fill="#C9C9C9" transform="translate(216,235)"/>
<path d="M0 0 C0 0.66 0 1.32 0 2 C-18.81 2.99 -18.81 2.99 -38 4 C-37.67 3.34 -37.34 2.68 -37 2 C-25.30881595 -1.52694938 -12.04351315 -0.19142398 0 0 Z " fill="#515151" transform="translate(246,140)"/>
<path d="M0 0 C3.375 -0.125 3.375 -0.125 7 0 C9 2 9 2 9.25 4.5 C9 7 9 7 7 9 C3.375 9.125 3.375 9.125 0 9 C0 6.03 0 3.06 0 0 Z " fill="#EDEDED" transform="translate(402,238)"/>
<path d="M0 0 C0.99 0.99 1.98 1.98 3 3 C2.01 3 1.02 3 0 3 C0 2.01 0 1.02 0 0 Z M-7 1 C-5.35 1 -3.7 1 -2 1 C-2 1.66 -2 2.32 -2 3 C-1.34 3 -0.68 3 0 3 C-0.165 4.216875 -0.33 5.43375 -0.5 6.6875 C-0.89454541 9.81607836 -1.09869725 12.84168804 -1 16 C-2.88391785 12.73454239 -3.49287967 9.71888239 -4 6 C-5.65 6.66 -7.3 7.32 -9 8 C-9.66 7.34 -10.32 6.68 -11 6 C-11.66 6 -12.32 6 -13 6 C-12.67 5.01 -12.34 4.02 -12 3 C-10.35 3.33 -8.7 3.66 -7 4 C-7 3.01 -7 2.02 -7 1 Z " fill="#B7B7B7" transform="translate(109,280)"/>
<path d="M0 0 C3.80881929 1.90440964 4.87446857 2.73664369 7.25 6 C8.03117188 7.051875 8.03117188 7.051875 8.828125 8.125 C10 10 10 10 10 12 C7.525 11.01 7.525 11.01 5 10 C4.67 10.66 4.34 11.32 4 12 C2.68 12 1.36 12 0 12 C0 8.04 0 4.08 0 0 Z " fill="#C3C3C3" transform="translate(200,251)"/>
<path d="M0 0 C1.98 0.99 3.96 1.98 6 3 C5.01 3.495 5.01 3.495 4 4 C4.66 5.98 5.32 7.96 6 10 C3.03 10 0.06 10 -3 10 C-3.33 7.36 -3.66 4.72 -4 2 C-2.68 2 -1.36 2 0 2 C0 1.34 0 0.68 0 0 Z " fill="#B6B6B6" transform="translate(241,336)"/>
<path d="M0 0 C0.66 0 1.32 0 2 0 C2.98678898 2.85172962 3.96456818 5.70604342 4.9375 8.5625 C5.21529297 9.36236328 5.49308594 10.16222656 5.77929688 10.98632812 C7.3684451 15.67718736 8.47747981 20.07243618 9 25 C2.58397583 19.50055071 0.31721108 9.03498759 -1 1 C-0.67 0.67 -0.34 0.34 0 0 Z " fill="#252525" transform="translate(103,286)"/>
<path d="M0 0 C-0.71027344 0.67546875 -1.42054688 1.3509375 -2.15234375 2.046875 C-3.07144531 2.93890625 -3.99054688 3.8309375 -4.9375 4.75 C-5.85402344 5.63171875 -6.77054688 6.5134375 -7.71484375 7.421875 C-9.89976881 9.88691866 -10.47541122 10.88653151 -11 14 C-12.875 15.8125 -12.875 15.8125 -15 17 C-15.99 16.67 -16.98 16.34 -18 16 C-14.37 12.04 -10.74 8.08 -7 4 C-9.64 4.33 -12.28 4.66 -15 5 C-10.87369509 1.38948321 -5.38708192 -1.79569397 0 0 Z " fill="#1A1A1A" transform="translate(252,158)"/>
<path d="M0 0 C0.66 0.33 1.32 0.66 2 1 C1.44570312 1.72445312 0.89140625 2.44890625 0.3203125 3.1953125 C-0.40414062 4.16210938 -1.12859375 5.12890625 -1.875 6.125 C-2.59429687 7.07632813 -3.31359375 8.02765625 -4.0546875 9.0078125 C-5.98211019 11.97248274 -7.04470778 14.61122655 -8 18 C-8.66 17.34 -9.32 16.68 -10 16 C-9.625 13.5625 -9.625 13.5625 -9 11 C-9 10.01 -9 9.02 -9 8 C-9 6.66666667 -9 5.33333333 -9 4 C-6.05944678 2.03963119 -4.37666283 1.62201684 -1 1 C-0.67 0.67 -0.34 0.34 0 0 Z " fill="#C4C4C4" transform="translate(202,190)"/>
<path d="M0 0 C0.33 -0.33 0.66 -0.66 1 -1 C2.66617115 -1.04063832 4.33388095 -1.042721 6 -1 C5.14285714 7.57142857 5.14285714 7.57142857 3 11 C2.01 10.34 1.02 9.68 0 9 C-0.1875 5.875 -0.1875 5.875 0 3 C-0.66 2.67 -1.32 2.34 -2 2 C-2.33 2.99 -2.66 3.98 -3 5 C-3.33 4.01 -3.66 3.02 -4 2 C-4.66 2 -5.32 2 -6 2 C-6 1.34 -6 0.68 -6 0 C-3.49046058 -1.25476971 -2.62766637 -0.67810745 0 0 Z " fill="#C9C9C9" transform="translate(227,340)"/>
<path d="M0 0 C1.4540625 0.0309375 1.4540625 0.0309375 2.9375 0.0625 C2.96446365 1.85408489 2.98387917 3.64578473 3 5.4375 C3.01160156 6.43523437 3.02320312 7.43296875 3.03515625 8.4609375 C2.9375 11.0625 2.9375 11.0625 1.9375 13.0625 C2.5975 13.3925 3.2575 13.7225 3.9375 14.0625 C3.9375 14.7225 3.9375 15.3825 3.9375 16.0625 C3.2775 16.0625 2.6175 16.0625 1.9375 16.0625 C-3.78785211 6.55545775 -3.78785211 6.55545775 -4.0625 1.0625 C-3.0625 0.0625 -3.0625 0.0625 0 0 Z " fill="#B6B6B6" transform="translate(117.0625,306.9375)"/>
<path d="M0 0 C2.25 0.125 2.25 0.125 5 1 C9 6.08108108 9 6.08108108 9 9 C6.03 9 3.06 9 0 9 C0 6.03 0 3.06 0 0 Z " fill="#EBEBEB" transform="translate(402,254)"/>
<path d="M0 0 C0.66 0 1.32 0 2 0 C2 3.63 2 7.26 2 11 C0.02 9.35 -1.96 7.7 -4 6 C-4.33 7.65 -4.66 9.3 -5 11 C-5.66 11 -6.32 11 -7 11 C-7 7.7 -7 4.4 -7 1 C-2.125 3.875 -2.125 3.875 -1 5 C-0.67 3.35 -0.34 1.7 0 0 Z " fill="#303030" transform="translate(301,311)"/>
<path d="M0 0 C2.31 1.98 4.62 3.96 7 6 C7.33 4.02 7.66 2.04 8 0 C8.66 0 9.32 0 10 0 C10 3.63 10 7.26 10 11 C7.69 9.02 5.38 7.04 3 5 C2.67 6.98 2.34 8.96 2 11 C1.34 11 0.68 11 0 11 C0 7.37 0 3.74 0 0 Z " fill="#181818" transform="translate(198,311)"/>
<path d="M0 0 C-1 2 -2 4 -3 6 C-0.69 5.34 1.62 4.68 4 4 C4 3.34 4 2.68 4 2 C7.465 1.505 7.465 1.505 11 1 C11 1.66 11 2.32 11 3 C8.89828133 3.8394882 6.79353375 4.67139656 4.6875 5.5 C3.51574219 5.9640625 2.34398437 6.428125 1.13671875 6.90625 C-2 8 -2 8 -5 8 C-5 6.35 -5 4.7 -5 3 C-5.99 3.33 -6.98 3.66 -8 4 C-8 3.01 -8 2.02 -8 1 C-5.10765685 0.17361624 -3.11257569 0 0 0 Z " fill="#353535" transform="translate(250,167)"/>
<path d="M0 0 C6.06679792 1.91633775 11.4069483 4.39712813 16.8359375 7.71484375 C15.8459375 9.19984375 15.8459375 9.19984375 14.8359375 10.71484375 C14.34609375 10.28558594 13.85625 9.85632813 13.3515625 9.4140625 C9.97025875 7.13010733 6.41178491 5.89613191 2.5859375 4.52734375 C1.46832031 4.11838867 1.46832031 4.11838867 0.328125 3.70117188 C-1.50041855 3.03305019 -3.3319533 2.37312484 -5.1640625 1.71484375 C-2.1640625 -0.28515625 -2.1640625 -0.28515625 0 0 Z " fill="#252525" transform="translate(307.1640625,108.28515625)"/>
<path d="M0 0 C5.625 -0.25 5.625 -0.25 9 2 C9.6875 5.625 9.6875 5.625 10 9 C8.1875 9.625 8.1875 9.625 6 10 C5.01 9.34 4.02 8.68 3 8 C3 6 3 4 3 2 C2.01 1.34 1.02 0.68 0 0 Z " fill="#CCCCCC" transform="translate(229,338)"/>
<path d="M0 0 C0.66 0.33 1.32 0.66 2 1 C1.01 2.32 0.02 3.64 -1 5 C-0.67 5.66 -0.34 6.32 0 7 C-1.66666667 8.66666667 -3.33333333 10.33333333 -5 12 C-5.66 12 -6.32 12 -7 12 C-8.68756133 12.96432076 -10.35666496 13.96210419 -12 15 C-10.38462556 11.10082032 -7.72075127 8.28706228 -4.875 5.25 C-4.40707031 4.74339844 -3.93914062 4.23679688 -3.45703125 3.71484375 C-2.30873459 2.47280859 -1.15491328 1.23588506 0 0 Z " fill="#C2C2C2" transform="translate(226,167)"/>
<path d="M0 0 C2.49361571 1.20381448 4.68143083 2.45428722 7 4 C5.68 7.3 4.36 10.6 3 14 C1 10 1 10 0 7 C0.33 6.34 0.66 5.68 1 5 C0.34 4.67 -0.32 4.34 -1 4 C-0.67 2.68 -0.34 1.36 0 0 Z " fill="#CACACA" transform="translate(242,289)"/>
<path d="M0 0 C0.99 0 1.98 0 3 0 C4.66666667 1.66666667 6.33333333 3.33333333 8 5 C6.02 5.33 4.04 5.66 2 6 C2 7.32 2 8.64 2 10 C0.68 10.33 -0.64 10.66 -2 11 C-2 6.98425198 -1.80684352 3.61368705 0 0 Z " fill="#C5C5C5" transform="translate(211,96)"/>
<path d="M0 0 C2.96052484 3.36423277 3.92289822 6.69159287 5 11 C4.34 11 3.68 11 3 11 C3 10.34 3 9.68 3 9 C1.35 9 -0.3 9 -2 9 C-2 9.66 -2 10.32 -2 11 C-2.66 11 -3.32 11 -4 11 C-3.52269162 9.5410574 -3.04308958 8.08286504 -2.5625 6.625 C-2.29566406 5.81289063 -2.02882813 5.00078125 -1.75390625 4.1640625 C-1 2 -1 2 0 0 Z " fill="#323232" transform="translate(281,311)"/>
<path d="M0 0 C1.66832577 2.50248865 2.62381674 4.41149187 3.625 7.1875 C3.88539063 7.90292969 4.14578125 8.61835938 4.4140625 9.35546875 C4.60742188 9.89816406 4.80078125 10.44085938 5 11 C3.88625 10.814375 2.7725 10.62875 1.625 10.4375 C-1.82568861 9.68319343 -1.82568861 9.68319343 -4 11 C-3.39301257 6.87248551 -1.96189209 3.6678852 0 0 Z " fill="#232323" transform="translate(249,292)"/>
<path d="M0 0 C3 1 3 1 4 3 C4.66 2.01 5.32 1.02 6 0 C6.66 0 7.32 0 8 0 C7.62875 0.886875 7.2575 1.77375 6.875 2.6875 C5.89215772 6.40826005 6.23937836 7.67438135 8 11 C6 11 6 11 4.375 9.5 C3.92125 9.005 3.4675 8.51 3 8 C2.67 8.99 2.34 9.98 2 11 C1.34 11 0.68 11 0 11 C0.556875 9.6696875 0.556875 9.6696875 1.125 8.3125 C2.10784228 4.59173995 1.76062164 3.32561865 0 0 Z " fill="#232323" transform="translate(261,292)"/>
<path d="M0 0 C2 1 2 1 4 3 C4.36933645 5.75372909 4.18336678 8.20365661 4 11 C-0.875 9.125 -0.875 9.125 -2 8 C-2.04063832 6.33382885 -2.042721 4.66611905 -2 3 C-1.34 3 -0.68 3 0 3 C0 2.01 0 1.02 0 0 Z " fill="#040404" transform="translate(413,234)"/>
<path d="M0 0 C2.97 0.495 2.97 0.495 6 1 C5.01 1.495 5.01 1.495 4 2 C4.515625 2.7425 5.03125 3.485 5.5625 4.25 C7 7 7 7 6 11 C3.36 8.36 0.72 5.72 -2 3 C-1.34 2.67 -0.68 2.34 0 2 C0 1.34 0 0.68 0 0 Z " fill="#AEAEAE" transform="translate(145,352)"/>
<path d="M0 0 C3.76543194 0.54619452 5.18817536 1.97481823 7.5625 4.875 C9.62391463 7.36338916 11.67537129 9.75309443 14 12 C13.67 12.66 13.34 13.32 13 14 C7.92845737 10.45117861 3.65616221 7.02722304 0 2 C0 1.34 0 0.68 0 0 Z " fill="#1A1A1A" transform="translate(135,348)"/>
<path d="M0 0 C5.75 0.875 5.75 0.875 8 2 C7.67 3.32 7.34 4.64 7 6 C3.20442119 6 1.37097383 5.49821059 -2 4 C-1.34 2.68 -0.68 1.36 0 0 Z " fill="#D9D9D9" transform="translate(306,112)"/>
<path d="M0 0 C1.32 1.65 2.64 3.3 4 5 C1.25 9.875 1.25 9.875 -1 11 C-3.83333333 6.75 -3.83333333 6.75 -4 4 C-2.0625 1.75 -2.0625 1.75 0 0 Z " fill="#B5B5B5" transform="translate(116,323)"/>
<path d="M0 0 C0.66 1.65 1.32 3.3 2 5 C-0.39509338 7.89932357 -2.31245243 8.50168276 -6 9 C-5.34 7.35 -4.68 5.7 -4 4 C-4.66 3.67 -5.32 3.34 -6 3 C-3.375 0 -3.375 0 0 0 Z " fill="#DEDEDE" transform="translate(327,311)"/>
<path d="M0 0 C1.67542976 0.28604898 3.34385343 0.61781233 5 1 C5 2.65 5 4.3 5 6 C2.625 6.625 2.625 6.625 0 7 C-0.66 6.34 -1.32 5.68 -2 5 C-1.46428571 1.46428571 -1.46428571 1.46428571 0 0 Z " fill="#BDBDBD" transform="translate(183,313)"/>
<path d="M0 0 C0.66 0.33 1.32 0.66 2 1 C2 1.99 2 2.98 2 4 C2.66 4.33 3.32 4.66 4 5 C2.95125002 7.62187494 2.35068687 8.79371361 -0.125 10.25 C-0.74375 10.4975 -1.3625 10.745 -2 11 C-2.66 9.02 -3.32 7.04 -4 5 C-3.01 4.67 -2.02 4.34 -1 4 C-0.26676204 1.98491642 -0.26676204 1.98491642 0 0 Z " fill="#C4C4C4" transform="translate(196,204)"/>
<path d="M0 0 C0.763125 0.20625 1.52625 0.4125 2.3125 0.625 C2.3125 0.955 2.3125 1.285 2.3125 1.625 C0.6625 1.955 -0.9875 2.285 -2.6875 2.625 C-2.6875 4.275 -2.6875 5.925 -2.6875 7.625 C-1.0375 7.955 0.6125 8.285 2.3125 8.625 C2.3125 9.285 2.3125 9.945 2.3125 10.625 C-0.5625 10.75 -0.5625 10.75 -3.6875 10.625 C-5.6875 8.625 -5.6875 8.625 -6 5.125 C-5.896875 3.97 -5.79375 2.815 -5.6875 1.625 C-2.6875 -0.375 -2.6875 -0.375 0 0 Z " fill="#2B2B2B" transform="translate(169.6875,311.375)"/>
<path d="M0 0 C-1.32 0.33 -2.64 0.66 -4 1 C-3.319375 1.556875 -2.63875 2.11375 -1.9375 2.6875 C-0.9784375 3.8321875 -0.9784375 3.8321875 0 5 C-0.25 7.75 -0.25 7.75 -1 10 C-2.65 10 -4.3 10 -6 10 C-6.33 9.34 -6.66 8.68 -7 8 C-5.35 8 -3.7 8 -2 8 C-2.66 7.4225 -3.32 6.845 -4 6.25 C-6 4 -6 4 -6 0 C-3.50907189 -1.24546405 -2.58919267 -0.7767578 0 0 Z " fill="#252525" transform="translate(223,312)"/>
<path d="M0 0 C2.31 0.33 4.62 0.66 7 1 C6.01 1.33 5.02 1.66 4 2 C4.185625 2.94875 4.37125 3.8975 4.5625 4.875 C5 8 5 8 4 10 C3.01 10 2.02 10 1 10 C0.67 6.7 0.34 3.4 0 0 Z " fill="#F0F0F0" transform="translate(417,234)"/>
<path d="M0 0 C1.32 0 2.64 0 4 0 C4.66 1.32 5.32 2.64 6 4 C5.34 4.66 4.68 5.32 4 6 C3.34 6 2.68 6 2 6 C1.34 6.66 0.68 7.32 0 8 C-0.99 7.34 -1.98 6.68 -3 6 C-2.01 4.02 -1.02 2.04 0 0 Z " fill="#DADADA" transform="translate(286,143)"/>
<path d="M0 0 C3.90285767 1.58667578 6.33520982 4.13350481 9.25 7.125 C10.14203125 8.03507813 11.0340625 8.94515625 11.953125 9.8828125 C12.62859375 10.58148438 13.3040625 11.28015625 14 12 C13.34 12.66 12.68 13.32 12 14 C9.99387601 12.04761147 7.99507567 10.08862178 6 8.125 C5.42765625 7.56941406 4.8553125 7.01382813 4.265625 6.44140625 C2.80549218 4.99865596 1.39850702 3.5025626 0 2 C0 1.34 0 0.68 0 0 Z " fill="#161616" transform="translate(350,136)"/>
<path d="M0 0 C0.33 0.66 0.66 1.32 1 2 C1.66 2.33 2.32 2.66 3 3 C1.09118566 4.03544174 -0.82739204 5.05290085 -2.75 6.0625 C-3.81734375 6.63097656 -4.8846875 7.19945312 -5.984375 7.78515625 C-9.02593537 9.01044806 -10.04893565 9.25348607 -13 8 C-11.58671871 7.18162558 -10.16921654 6.37053781 -8.75 5.5625 C-7.96109375 5.11003906 -7.1721875 4.65757812 -6.359375 4.19140625 C-4.21166532 3.10688398 -2.34794939 2.46851284 0 2 C0 1.34 0 0.68 0 0 Z " fill="#C0C0C0" transform="translate(273,164)"/>
<path d="M0 0 C1.02577148 0.00676758 1.02577148 0.00676758 2.07226562 0.01367188 C3.73571604 0.0253044 5.3991205 0.04323306 7.0625 0.0625 C6.7325 1.0525 6.4025 2.0425 6.0625 3.0625 C-0.8675 2.7325 -7.7975 2.4025 -14.9375 2.0625 C-14.9375 1.7325 -14.9375 1.4025 -14.9375 1.0625 C-9.89895894 0.23038724 -5.1249338 -0.0453534 0 0 Z " fill="#585858" transform="translate(263.9375,139.9375)"/>
<path d="M0 0 C2.375 1.25 2.375 1.25 3.375 4.25 C2.385 5.24 1.395 6.23 0.375 7.25 C-4.5 2.5 -4.5 2.5 -5.625 0.25 C-2.625 -0.75 -2.625 -0.75 0 0 Z " fill="#B9B9B9" transform="translate(140.625,344.75)"/>
<path d="M0 0 C1.1446875 0.3403125 1.1446875 0.3403125 2.3125 0.6875 C2.3125 1.0175 2.3125 1.3475 2.3125 1.6875 C0.3325 2.3475 -1.6475 3.0075 -3.6875 3.6875 C-3.3575 5.0075 -3.0275 6.3275 -2.6875 7.6875 C-1.0375 8.0175 0.6125 8.3475 2.3125 8.6875 C2.3125 9.3475 2.3125 10.0075 2.3125 10.6875 C-0.5625 10.8125 -0.5625 10.8125 -3.6875 10.6875 C-5.6875 8.6875 -5.6875 8.6875 -6 5.75 C-5.6875 2.6875 -5.6875 2.6875 -4.5 0.75 C-2.6875 -0.3125 -2.6875 -0.3125 0 0 Z " fill="#292929" transform="translate(317.6875,311.3125)"/>
<path d="M0 0 C0.99 0.33 1.98 0.66 3 1 C2.16855469 1.97839844 2.16855469 1.97839844 1.3203125 2.9765625 C0.59585938 3.85054687 -0.12859375 4.72453125 -0.875 5.625 C-1.59429687 6.48351562 -2.31359375 7.34203125 -3.0546875 8.2265625 C-5.07115904 11.10145165 -5.9436183 13.67858366 -7 17 C-7.66 17.33 -8.32 17.66 -9 18 C-9 10.43740694 -4.54617834 5.7267349 0 0 Z " fill="#1F1F1F" transform="translate(203,191)"/>
<path d="M0 0 C3 1 3 1 5 4 C5.66 3.01 6.32 2.02 7 1 C7.66 1.33 8.32 1.66 9 2 C8.01 4.97 7.02 7.94 6 11 C5.34 11 4.68 11 4 11 C3.52014033 9.72942818 3.0411407 8.45853152 2.5625 7.1875 C2.16224609 6.12595703 2.16224609 6.12595703 1.75390625 5.04296875 C1.13774814 3.37327604 0.56280765 1.68842296 0 0 Z " fill="#242424" transform="translate(327,311)"/>
<path d="M0 0 C0.66 0.33 1.32 0.66 2 1 C2.40729228 3.32156597 2.74438677 5.6568787 3 8 C1.02 6.68 -0.96 5.36 -3 4 C-3.33 6.97 -3.66 9.94 -4 13 C-4.33 13 -4.66 13 -5 13 C-5 9.37 -5 5.74 -5 2 C-3.68 2 -2.36 2 -1 2 C-0.67 1.34 -0.34 0.68 0 0 Z " fill="#C5C5C5" transform="translate(298,309)"/>
<path d="M0 0 C2.64 0 5.28 0 8 0 C8 0.66 8 1.32 8 2 C7.01 2 6.02 2 5 2 C5 4.97 5 7.94 5 11 C4.34 11 3.68 11 3 11 C3 8.03 3 5.06 3 2 C2.01 2 1.02 2 0 2 C0 1.34 0 0.68 0 0 Z " fill="#292929" transform="translate(262,311)"/>
<path d="M0 0 C0.103125 0.598125 0.20625 1.19625 0.3125 1.8125 C1.08876455 4.28243264 2.07088921 5.32251235 4 7 C3.34 7.66 2.68 8.32 2 9 C2 8.34 2 7.68 2 7 C1.34 7 0.68 7 0 7 C0.33 8.32 0.66 9.64 1 11 C-0.65 9.35 -2.3 7.7 -4 6 C-2.84826645 3.53199953 -1.95216435 1.95216435 0 0 Z " fill="#B9B9B9" transform="translate(210,241)"/>
<path d="M0 0 C2.475 0.495 2.475 0.495 5 1 C5 2.65 5 4.3 5 6 C3.35 6.33 1.7 6.66 0 7 C0 4.69 0 2.38 0 0 Z " fill="#666666" transform="translate(239,339)"/>
<path d="M0 0 C0.99 0.99 1.98 1.98 3 3 C2.01 3 1.02 3 0 3 C0 2.01 0 1.02 0 0 Z M-2 3 C-1.34 3 -0.68 3 0 3 C-0.165 4.216875 -0.33 5.43375 -0.5 6.6875 C-0.89454541 9.81607836 -1.09869725 12.84168804 -1 16 C-3.12300942 12.46165096 -3.69690596 9.09176955 -4 5 C-3.34 4.34 -2.68 3.68 -2 3 Z " fill="#B1B1B1" transform="translate(109,280)"/>
<path d="M0 0 C1.70884005 1.62339805 3.37446717 3.29319053 5 5 C5 5.66 5 6.32 5 7 C2.69 7.33 0.38 7.66 -2 8 C-2.6875 6.25 -2.6875 6.25 -3 4 C-1.5625 1.75 -1.5625 1.75 0 0 Z " fill="#B1B1B1" transform="translate(124,336)"/>
<path d="M0 0 C0.66 0 1.32 0 2 0 C2 2.97 2 5.94 2 9 C3.65 9 5.3 9 7 9 C7 9.66 7 10.32 7 11 C4.69 11 2.38 11 0 11 C0 7.37 0 3.74 0 0 Z " fill="#222222" transform="translate(248,311)"/>
<path d="M0 0 C0.33 0 0.66 0 1 0 C1.33 2.31 1.66 4.62 2 7 C1.01 7.66 0.02 8.32 -1 9 C-0.67 6.03 -0.34 3.06 0 0 Z M-2 10 C-2 10.66 -2 11.32 -2 12 C-5.64793184 13.27253436 -9.1936543 14.32829194 -13 15 C-13.33 14.01 -13.66 13.02 -14 12 C-12.37548581 11.66430703 -10.75037083 11.3315204 -9.125 11 C-8.22007813 10.814375 -7.31515625 10.62875 -6.3828125 10.4375 C-4 10 -4 10 -2 10 Z " fill="#969696" transform="translate(101,252)"/>
<path d="M0 0 C1.65 0 3.3 0 5 0 C5.66 1.98 6.32 3.96 7 6 C6.01 6.33 5.02 6.66 4 7 C1.3125 5.5625 1.3125 5.5625 -1 4 C-0.67 2.68 -0.34 1.36 0 0 Z " fill="#ACACAC" transform="translate(75,257)"/>
<path d="M0 0 C1.32 0.33 2.64 0.66 4 1 C4 3.31 4 5.62 4 8 C2.35 8.33 0.7 8.66 -1 9 C-1 6 -1 6 0 4 C-0.66 3.67 -1.32 3.34 -2 3 C-1.34 2.67 -0.68 2.34 0 2 C0 1.34 0 0.68 0 0 Z " fill="#D5D5D5" transform="translate(254,161)"/>
<path d="M0 0 C2.64752004 2.57784846 4.94432065 4.91648098 7 8 C4.6875 8.6875 4.6875 8.6875 2 9 C0.1875 7.5625 0.1875 7.5625 -1 6 C-0.67 5.01 -0.34 4.02 0 3 C0 2.01 0 1.02 0 0 Z " fill="#B3B3B3" transform="translate(129,343)"/>
<path d="M0 0 C1.98 0.66 3.96 1.32 6 2 C6 2.66 6 3.32 6 4 C6.66 4.33 7.32 4.66 8 5 C7.67 5.99 7.34 6.98 7 8 C3.34683329 6.75023244 2.21934164 6.32901247 0 3 C0 2.01 0 1.02 0 0 Z " fill="#EAEAEA" transform="translate(415,254)"/>
<path d="M0 0 C2.94995547 3.45856848 5.22675738 6.80021485 7 11 C6.67 11.66 6.34 12.32 6 13 C5.34 13 4.68 13 4 13 C3.13633178 11.21289414 2.28431406 9.4201535 1.4375 7.625 C0.96183594 6.62726563 0.48617188 5.62953125 -0.00390625 4.6015625 C-0.49697266 3.31378906 -0.49697266 3.31378906 -1 2 C-0.67 1.34 -0.34 0.68 0 0 Z " fill="#303030" transform="translate(382,174)"/>
<path d="M0 0 C0 0.66 0 1.32 0 2 C-1.75 3.2890625 -1.75 3.2890625 -4 4.625 C-4.7425 5.07101563 -5.485 5.51703125 -6.25 5.9765625 C-6.8275 6.31429687 -7.405 6.65203125 -8 7 C-8.33 5.68 -8.66 4.36 -9 3 C-5.55930376 0.70620251 -4.27709699 0 0 0 Z " fill="#3E3E3E" transform="translate(272,164)"/>
<path d="M0 0 C4.95 0.33 9.9 0.66 15 1 C14.01 2.485 14.01 2.485 13 4 C8.62065881 3.48041715 4.31196609 2.94324258 0 2 C0 1.34 0 0.68 0 0 Z " fill="#292929" transform="translate(267,99)"/>
<path d="M0 0 C2.0625 0.4375 2.0625 0.4375 4 1 C4 2.65 4 4.3 4 6 C2.0625 6.5625 2.0625 6.5625 0 7 C-1 6 -1 6 -1.125 3.5 C-1 1 -1 1 0 0 Z " fill="#5E5E5E" transform="translate(277,339)"/>
<path d="M0 0 C3 1 3 1 4 3 C4.039992 4.99960012 4.04346799 7.00047242 4 9 C2.02 7.35 0.04 5.7 -2 4 C-1.34 2.68 -0.68 1.36 0 0 Z " fill="#BFBFBF" transform="translate(202,309)"/>
<path d="M0 0 C0.99 0 1.98 0 3 0 C3 0.66 3 1.32 3 2 C3.9590625 2.1546875 3.9590625 2.1546875 4.9375 2.3125 C5.618125 2.539375 6.29875 2.76625 7 3 C7.33 3.99 7.66 4.98 8 6 C5.69 6.33 3.38 6.66 1 7 C0.67 4.69 0.34 2.38 0 0 Z " fill="#EDEDED" transform="translate(393,225)"/>
<path d="M0 0 C5.41390868 0.46671627 9.20517932 1.24297811 14 4 C14 4.33 14 4.66 14 5 C8.58609132 4.53328373 4.79482068 3.75702189 0 1 C0 0.67 0 0.34 0 0 Z " fill="#181818" transform="translate(291,104)"/>
<path d="M0 0 C0 0.33 0 0.66 0 1 C-13.6332574 2.33257403 -13.6332574 2.33257403 -20 1 C-20 0.67 -20 0.34 -20 0 C-13.14011227 -0.94870788 -6.85988773 -0.94870788 0 0 Z " fill="#2E2E2E" transform="translate(279,399)"/>
<path d="M0 0 C1.65 0.33 3.3 0.66 5 1 C4.67 2.65 4.34 4.3 4 6 C2.02 6.33 0.04 6.66 -2 7 C-1.01 6.67 -0.02 6.34 1 6 C0.67 4.02 0.34 2.04 0 0 Z " fill="#9E9E9E" transform="translate(90,252)"/>
<path d="M0 0 C0.33 0.66 0.66 1.32 1 2 C1.66 2.33 2.32 2.66 3 3 C4 4 4 4 5 7 C2.36 7 -0.28 7 -3 7 C-3.33 6.34 -3.66 5.68 -4 5 C-3.525625 4.54625 -3.05125 4.0925 -2.5625 3.625 C-0.90972192 2.06741796 -0.90972192 2.06741796 0 0 Z " fill="#CACACA" transform="translate(214,224)"/>
<path d="M0 0 C0.91007813 0.00902344 1.82015625 0.01804687 2.7578125 0.02734375 C3.45648438 0.03894531 4.15515625 0.05054687 4.875 0.0625 C1.87059979 2.06543347 0.16506055 2.55521626 -3.3125 3.1875 C-4.66408203 3.43886719 -4.66408203 3.43886719 -6.04296875 3.6953125 C-6.73003906 3.81648438 -7.41710937 3.93765625 -8.125 4.0625 C-7.795 3.0725 -7.465 2.0825 -7.125 1.0625 C-4.60024538 -0.19987731 -2.81299534 -0.03606404 0 0 Z " fill="#222222" transform="translate(220.125,100.9375)"/>
<path d="M0 0 C1.32 0.99 2.64 1.98 4 3 C3.67 4.65 3.34 6.3 3 8 C2.01 8.33 1.02 8.66 0 9 C-0.66 7.68 -1.32 6.36 -2 5 C-1.34 4.34 -0.68 3.68 0 3 C0 2.01 0 1.02 0 0 Z " fill="#C4C4C4" transform="translate(204,319)"/>
<path d="M0 0 C2.27795022 2.27795022 3.05219877 3.93787293 4 7 C3.625 9.3125 3.625 9.3125 3 11 C-0.0916909 8.47043472 -0.90931332 5.77545388 -2 2 C-1.34 1.34 -0.68 0.68 0 0 Z " fill="#404040" transform="translate(112,308)"/>
<path d="M0 0 C1.32 0.33 2.64 0.66 4 1 C3.53199289 5.05606165 3.12046792 8.46588679 1 12 C0.01 11.34 -0.98 10.68 -2 10 C-1.34 9.34 -0.68 8.68 0 8 C0.24212873 6.01871492 0.24212873 6.01871492 0.125 3.875 C0.063125 1.956875 0.063125 1.956875 0 0 Z " fill="#7A7A7A" transform="translate(229,339)"/>
<path d="M0 0 C2.475 0.495 2.475 0.495 5 1 C4.67 2.65 4.34 4.3 4 6 C2.68 5.67 1.36 5.34 0 5 C0 3.35 0 1.7 0 0 Z " fill="#5A5A5A" transform="translate(286,340)"/>
<path d="M0 0 C2.475 0.495 2.475 0.495 5 1 C4.67 2.65 4.34 4.3 4 6 C2.68 5.67 1.36 5.34 0 5 C0 3.35 0 1.7 0 0 Z " fill="#595959" transform="translate(266,340)"/>
<path d="M0 0 C3.99881788 0.61520275 6.80358226 2.60268669 10 5 C10 5.66 10 6.32 10 7 C6.12697862 5.85569823 2.99736561 4.76679902 0 2 C0 1.34 0 0.68 0 0 Z " fill="#1D1D1D" transform="translate(323,117)"/>
<path d="M0 0 C4.95 0.33 9.9 0.66 15 1 C11.60496995 3.26335337 10.82992437 3.18567637 6.9375 2.75 C6.05964844 2.66234375 5.18179688 2.5746875 4.27734375 2.484375 C2 2 2 2 0 0 Z " fill="#1D1D1D" transform="translate(223,398)"/>
<path d="M0 0 C4.83256305 0.41421969 6.82679218 2.46413986 10 6 C9.34 6.66 8.68 7.32 8 8 C6.66372225 6.85760183 5.33104612 5.71098945 4 4.5625 C3.2575 3.92441406 2.515 3.28632813 1.75 2.62890625 C1.1725 2.09136719 0.595 1.55382812 0 1 C0 0.67 0 0.34 0 0 Z " fill="#272727" transform="translate(146,361)"/>
<path d="M0 0 C0.66 0 1.32 0 2 0 C2.66 2.31 3.32 4.62 4 7 C2.02 7 0.04 7 -2 7 C-1.34 4.69 -0.68 2.38 0 0 Z " fill="#C5C5C5" transform="translate(339,245)"/>
<path d="M0 0 C1.65 0 3.3 0 5 0 C5.33 1.65 5.66 3.3 6 5 C4.02 5.99 4.02 5.99 2 7 C1.34 4.69 0.68 2.38 0 0 Z " fill="#C6C6C6" transform="translate(210,248)"/>
<path d="M0 0 C0.66 1.32 1.32 2.64 2 4 C0.68 3.67 -0.64 3.34 -2 3 C-2.33 3.66 -2.66 4.32 -3 5 C-5.0625 5.625 -5.0625 5.625 -7 6 C-7 3 -7 3 -5.75 1.3125 C-4 0 -4 0 0 0 Z " fill="#B8B8B8" transform="translate(100,239)"/>
<path d="M0 0 C0.99 0.495 0.99 0.495 2 1 C2.6328125 3.28515625 2.6328125 3.28515625 3.125 6.0625 C3.29257812 6.98160156 3.46015625 7.90070313 3.6328125 8.84765625 C3.75398438 9.55792969 3.87515625 10.26820313 4 11 C3.01 11.495 3.01 11.495 2 12 C0.40861915 7.82262526 -0.21278058 4.46839215 0 0 Z " fill="#1F1F1F" transform="translate(394,202)"/>
<path d="M0 0 C0.99 0.33 1.98 0.66 3 1 C-2.14285714 7.57142857 -2.14285714 7.57142857 -6 9 C-4.47291037 5.56404834 -2.40072955 2.88087546 0 0 Z " fill="#BFBFBF" transform="translate(205,192)"/>
<path d="M0 0 C3.35111834 2.23407889 4.81553956 3.26215824 5.8125 7.25 C5.874375 8.1575 5.93625 9.065 6 10 C2.46413986 6.82679218 0.41421969 4.83256305 0 0 Z " fill="#1C1C1C" transform="translate(123,331)"/>
<path d="M0 0 C2 1 2 1 2.75 2.875 C3 5 3 5 1 8 C-0.65 7.67 -2.3 7.34 -4 7 C-4 6.34 -4 5.68 -4 5 C-2.68 5 -1.36 5 0 5 C-0.66 3.68 -1.32 2.36 -2 1 C-1.34 0.67 -0.68 0.34 0 0 Z " fill="#B5B5B5" transform="translate(110,312)"/>
<path d="M0 0 C1.98 0.66 3.96 1.32 6 2 C5.67 2.99 5.34 3.98 5 5 C4.34 4.67 3.68 4.34 3 4 C2.34 4.185625 1.68 4.37125 1 4.5625 C0.34 4.706875 -0.32 4.85125 -1 5 C-1.66 4.34 -2.32 3.68 -3 3 C-2.01 2.01 -1.02 1.02 0 0 Z " fill="#DFDFDF" transform="translate(355,146)"/>
<path d="M0 0 C5.875 3.75 5.875 3.75 7 6 C6.34 6.66 5.68 7.32 5 8 C2.69 6.02 0.38 4.04 -2 2 C-1.34 1.34 -0.68 0.68 0 0 Z " fill="#2D2D2D" transform="translate(344,130)"/>
<path d="M0 0 C3.7910119 1.44950455 7.3874638 3.15172566 11 5 C10.01 6.485 10.01 6.485 9 8 C8.4225 7.54625 7.845 7.0925 7.25 6.625 C5.09572119 4.95761302 5.09572119 4.95761302 2.8125 4 C1 3 1 3 0 0 Z " fill="#373737" transform="translate(313,111)"/>
<path d="M0 0 C1.32 1.32 2.64 2.64 4 4 C3.67 4.99 3.34 5.98 3 7 C2.34 7 1.68 7 1 7 C0.67 8.32 0.34 9.64 0 11 C-1.35015859 6.94952424 -0.62084998 4.2079832 0 0 Z " fill="#B5B5B5" transform="translate(200,315)"/>
<path d="M0 0 C0.33 0.66 0.66 1.32 1 2 C1.99 2.33 2.98 2.66 4 3 C3.01 3 2.02 3 1 3 C1.33 4.32 1.66 5.64 2 7 C0.02 7.33 -1.96 7.66 -4 8 C-2.66666667 5.33333333 -1.33333333 2.66666667 0 0 Z " fill="#C1C1C1" transform="translate(167,304)"/>
<path d="M0 0 C3.465 1.98 3.465 1.98 7 4 C7 4.66 7 5.32 7 6 C5.68 6.33 4.36 6.66 3 7 C0 2.25 0 2.25 0 0 Z " fill="#B8B8B8" transform="translate(160,373)"/>
<path d="M0 0 C1.485 0.99 1.485 0.99 3 2 C2.67 4.97 2.34 7.94 2 11 C1.34 11 0.68 11 0 11 C0 7.37 0 3.74 0 0 Z " fill="#2F2F2F" transform="translate(198,311)"/>
<path d="M0 0 C2.31 0 4.62 0 7 0 C7 0.66 7 1.32 7 2 C6.01 2 5.02 2 4 2 C4 4.97 4 7.94 4 11 C3.67 11 3.34 11 3 11 C3 8.03 3 5.06 3 2 C2.01 2 1.02 2 0 2 C0 1.34 0 0.68 0 0 Z " fill="#171717" transform="translate(230,292)"/>
<path d="M0 0 C1.32 0.66 2.64 1.32 4 2 C3.34 2 2.68 2 2 2 C1.34 3.32 0.68 4.64 0 6 C-1.32 5.01 -2.64 4.02 -4 3 C-2.68 2.01 -1.36 1.02 0 0 Z " fill="#ADADAD" transform="translate(98,242)"/>
<path d="M0 0 C0.99 0.33 1.98 0.66 3 1 C1.02 3.31 -0.96 5.62 -3 8 C-3.66 7.34 -4.32 6.68 -5 6 C-3.35 4.02 -1.7 2.04 0 0 Z " fill="#202020" transform="translate(244,143)"/>
<path d="M0 0 C2.97 0.495 2.97 0.495 6 1 C5.6875 2.9375 5.6875 2.9375 5 5 C4.01 5.33 3.02 5.66 2 6 C1.34 5.34 0.68 4.68 0 4 C0 2.68 0 1.36 0 0 Z " fill="#DFDFDF" transform="translate(313,321)"/>
<path d="M0 0 C0.125 6.75 0.125 6.75 -1 9 C-1.99 8.67 -2.98 8.34 -4 8 C-4.36780384 3.46375267 -4.36780384 3.46375267 -2.5625 1.1875 C-1 0 -1 0 0 0 Z " fill="#C7C7C7" transform="translate(179,306)"/>
<path d="M0 0 C-0.25 1.875 -0.25 1.875 -1 4 C-3.0625 5.25 -3.0625 5.25 -5 6 C-5.33 5.34 -5.66 4.68 -6 4 C-5.67 3.01 -5.34 2.02 -5 1 C-3 0 -3 0 0 0 Z " fill="#C6C6C6" transform="translate(296,131)"/>
<path d="M0 0 C4.875 1.75 4.875 1.75 6 4 C3.69 4.33 1.38 4.66 -1 5 C-1.33 4.01 -1.66 3.02 -2 2 C-1.34 2 -0.68 2 0 2 C0 1.34 0 0.68 0 0 Z " fill="#B9B9B9" transform="translate(154,369)"/>
<path d="M0 0 C1.32 0.66 2.64 1.32 4 2 C4 3.65 4 5.3 4 7 C3.34 7 2.68 7 2 7 C2 6.01 2 5.02 2 4 C1.01 4.33 0.02 4.66 -1 5 C-0.67 3.35 -0.34 1.7 0 0 Z " fill="#E4E4E4" transform="translate(407,238)"/>
<path d="M0 0 C0.66 0.99 1.32 1.98 2 3 C0.35 4.32 -1.3 5.64 -3 7 C-3.33 5.02 -3.66 3.04 -4 1 C-2.68 0.67 -1.36 0.34 0 0 Z " fill="#BFBFBF" transform="translate(205,234)"/>
<path d="M0 0 C0.33 0.99 0.66 1.98 1 3 C0.01 3.495 0.01 3.495 -1 4 C-0.01 4.66 0.98 5.32 2 6 C1 7 1 7 -1.5625 7.0625 C-2.7690625 7.0315625 -2.7690625 7.0315625 -4 7 C-3.43628586 3.73045798 -2.50037734 2.17424117 0 0 Z " fill="#1A1A1A" transform="translate(262,168)"/>
<path d="M0 0 C2.475 0.495 2.475 0.495 5 1 C5 4 5 4 3.5 5.6875 C3.005 6.120625 2.51 6.55375 2 7 C1.34 4.69 0.68 2.38 0 0 Z " fill="#EAEAEA" transform="translate(377,161)"/>
<path d="M0 0 C0.33 0.99 0.66 1.98 1 3 C1.66 3.33 2.32 3.66 3 4 C-1.95 5.485 -1.95 5.485 -7 7 C-4.66666667 4.66666667 -2.33333333 2.33333333 0 0 Z " fill="#C1C1C1" transform="translate(263,147)"/>
<path d="M0 0 C2 3 2 3 3 6 C1.68 6.33 0.36 6.66 -1 7 C-1.625 5.1875 -1.625 5.1875 -2 3 C-1.34 2.01 -0.68 1.02 0 0 Z " fill="#494949" transform="translate(249,292)"/>
<path d="M0 0 C1.32 0.33 2.64 0.66 4 1 C3.34 2.65 2.68 4.3 2 6 C0.68 5.34 -0.64 4.68 -2 4 C-1.34 2.68 -0.68 1.36 0 0 Z " fill="#CACACA" transform="translate(220,229)"/>
<path d="M0 0 C0.66 0.33 1.32 0.66 2 1 C0.02 3.97 0.02 3.97 -2 7 C-3.32 5.35 -4.64 3.7 -6 2 C-4.7934375 1.7834375 -4.7934375 1.7834375 -3.5625 1.5625 C-1.07896294 1.25864751 -1.07896294 1.25864751 0 0 Z " fill="#BCBCBC" transform="translate(202,190)"/>
<path d="M0 0 C0.66 0.33 1.32 0.66 2 1 C0.02 3.31 -1.96 5.62 -4 8 C-4.99 7.67 -5.98 7.34 -7 7 C-4.69 4.69 -2.38 2.38 0 0 Z " fill="#111111" transform="translate(228,162)"/>
<path d="M0 0 C4.67692308 1.47692308 4.67692308 1.47692308 6.3125 4.125 C6.539375 4.74375 6.76625 5.3625 7 6 C2.32307692 4.52307692 2.32307692 4.52307692 0.6875 1.875 C0.460625 1.25625 0.23375 0.6375 0 0 Z " fill="#161616" transform="translate(155,367)"/>
<path d="M0 0 C0.33 0.66 0.66 1.32 1 2 C0.67 2.66 0.34 3.32 0 4 C0.99 4 1.98 4 3 4 C3 4.99 3 5.98 3 7 C1.68 6.67 0.36 6.34 -1 6 C-1.625 4.125 -1.625 4.125 -2 2 C-1.34 1.34 -0.68 0.68 0 0 Z " fill="#CBCBCB" transform="translate(315,313)"/>
<path d="M0 0 C0.99 0.33 1.98 0.66 3 1 C3.33 3.31 3.66 5.62 4 8 C1.10067643 5.60490662 0.49831724 3.68754757 0 0 Z " fill="#161616" transform="translate(108,303)"/>
<path d="M0 0 C0.61875 0.33 1.2375 0.66 1.875 1 C3.91018344 2.14193235 3.91018344 2.14193235 6 2 C6.33 2.99 6.66 3.98 7 5 C5 5 3 5 1 5 C0.67 3.35 0.34 1.7 0 0 Z " fill="#E3E3E3" transform="translate(336,130)"/>
<path d="M0 0 C0.66 0.33 1.32 0.66 2 1 C4.09821215 0.60061233 4.09821215 0.60061233 6 0 C6.33 0.66 6.66 1.32 7 2 C6.195625 2.12375 5.39125 2.2475 4.5625 2.375 C3.2940625 2.684375 3.2940625 2.684375 2 3 C1.67 3.66 1.34 4.32 1 5 C0.01 4.01 -0.98 3.02 -2 2 C-1.34 1.34 -0.68 0.68 0 0 Z " fill="#DBDBDB" transform="translate(336,120)"/>
<path d="M0 0 C1.98 0.66 3.96 1.32 6 2 C5.67 2.66 5.34 3.32 5 4 C1.9375 4.625 1.9375 4.625 -1 5 C-0.67 3.35 -0.34 1.7 0 0 Z " fill="#E1E1E1" transform="translate(326,112)"/>
<path d="M0 0 C0.99 0.33 1.98 0.66 3 1 C3.33 2.98 3.66 4.96 4 7 C3.34 7 2.68 7 2 7 C0.5393715 4.35261084 0 3.10551666 0 0 Z " fill="#202020" transform="translate(115,318)"/>
<path d="M0 0 C1.32 0.66 2.64 1.32 4 2 C2.68 3.65 1.36 5.3 0 7 C-0.93423645 3.98968256 -1.04449911 3.13349732 0 0 Z " fill="#A3A3A3" transform="translate(81,232)"/>
<path d="M0 0 C0 0.99 0 1.98 0 3 C0.99 4.485 0.99 4.485 2 6 C-0.31 6.33 -2.62 6.66 -5 7 C-3.35 4.69 -1.7 2.38 0 0 Z " fill="#B9B9B9" transform="translate(211,184)"/>
<path d="M0 0 C0.99 0.33 1.98 0.66 3 1 C3.33 2.65 3.66 4.3 4 6 C3.01 6.66 2.02 7.32 1 8 C1 7.01 1 6.02 1 5 C0.68911632 3.32900023 0.35919668 1.66128463 0 0 Z " fill="#E7E7E7" transform="translate(361,151)"/>
<path d="M0 0 C2.97 0.495 2.97 0.495 6 1 C5.01 1.495 5.01 1.495 4 2 C3.67 2.66 3.34 3.32 3 4 C1.35 3.67 -0.3 3.34 -2 3 C-1.34 2.67 -0.68 2.34 0 2 C0 1.34 0 0.68 0 0 Z " fill="#B9B9B9" transform="translate(145,352)"/>
<path d="M0 0 C2.125 0.9375 2.125 0.9375 4 2 C3.01 2.495 3.01 2.495 2 3 C1.67 3.99 1.34 4.98 1 6 C0.67 5.01 0.34 4.02 0 3 C-0.66 3 -1.32 3 -2 3 C-2 2.34 -2 1.68 -2 1 C-1.34 0.67 -0.68 0.34 0 0 Z " fill="#BBBBBB" transform="translate(223,339)"/>
<path d="M0 0 C1.32 0.66 2.64 1.32 4 2 C4 2.66 4 3.32 4 4 C1.525 3.01 1.525 3.01 -1 2 C-0.67 1.34 -0.34 0.68 0 0 Z M-3 1 C-2.34 1.33 -1.68 1.66 -1 2 C-1.33 2.99 -1.66 3.98 -2 5 C-2.66 4.01 -3.32 3.02 -4 2 C-3.67 1.67 -3.34 1.34 -3 1 Z " fill="#CBCBCB" transform="translate(218,341)"/>
<path d="M0 0 C0.66 0.33 1.32 0.66 2 1 C2 2.32 2 3.64 2 5 C1.01 5.495 1.01 5.495 0 6 C-0.33 6.99 -0.66 7.98 -1 9 C-1.59732819 6.23735711 -2 3.83967231 -2 1 C-1.34 0.67 -0.68 0.34 0 0 Z " fill="#DFDFDF" transform="translate(301,305)"/>
<path d="M0 0 C3.875 1.75 3.875 1.75 5 4 C3.35 4.66 1.7 5.32 0 6 C0 4.02 0 2.04 0 0 Z " fill="#BCBCBC" transform="translate(200,251)"/>
<path d="M0 0 C0.99 0 1.98 0 3 0 C3.103125 0.639375 3.20625 1.27875 3.3125 1.9375 C3.539375 2.618125 3.76625 3.29875 4 4 C4.99 4.33 5.98 4.66 7 5 C5.02 5 3.04 5 1 5 C0.67 3.35 0.34 1.7 0 0 Z " fill="#E4E4E4" transform="translate(392,210)"/>
</svg>
